# xmcd CD database file
#
# Track frame offsets:
#	150
#	11881
#	24167
#	35410
#	45278
#	59128
#	69652
#	87861
#	98727
#	111793
#	125170
#	136069
#	161979
#	173960
#	187354
#	203984
#	217491
#	227278
#
# Disc length: 3185 seconds
#
# Revision: 3
# Processed by: cddbd v1.5.1PL0 Copyright (c) Steve Scherf et al.
# Submitted via: CDex 1.51
#
DISCID=0a0c6f12
DTITLE=John Lee Hooker - Jazz Legends - John Lee Hooker
DYEAR=2000
DGENRE=Blues
TTITLE0=Booie chillen 2
TTITLE1=I'm in the mood
TTITLE2=Boom boom
TTITLE3=Dimples
TTITLE4=Hobo blues
TTITLE5=Dusty road
TTITLE6=House rent boogie
TTITLE7=No shoes
TTITLE8=I'm so excited
TTITLE9=Baby Lee
TTITLE10=Bottle up and go
TTITLE11=Drug store woman
TTITLE12=Frisco
TTITLE13=Whiskey and wimmen
TTITLE14=Process
TTITLE15=Trouble blues
TTITLE16=Onions
TTITLE17=Good rockin' mama
EXTD=YEAR: 2000
EXTT0=
EXTT1=
EXTT2=
EXTT3=
EXTT4=
EXTT5=
EXTT6=
EXTT7=
EXTT8=
EXTT9=
EXTT10=
EXTT11=
EXTT12=
EXTT13=
EXTT14=
EXTT15=
EXTT16=
EXTT17=
PLAYORDER=
